<?xml version="1.0" standalone="no"?>
<!DOCTYPE svg PUBLIC "-//W3C//DTD SVG 20010904//EN"
 "http://www.w3.org/TR/2001/REC-SVG-20010904/DTD/svg10.dtd">
<svg version="1.0" xmlns="http://www.w3.org/2000/svg"
 width="947.000000pt" height="947.000000pt" viewBox="0 0 947.000000 947.000000"
 preserveAspectRatio="xMidYMid meet">
<metadata>
Created by potrace 1.14, written by Peter Selinger 2001-2017
</metadata>
<g transform="translate(0.000000,947.000000) scale(0.100000,-0.100000)"
fill="#000000" stroke="none">
<path d="M5045 8583 c-621 -50 -1306 -189 -1759 -355 -581 -213 -1084 -596
-1414 -1077 -307 -445 -549 -1092 -646 -1726 -42 -267 -51 -395 -50 -690 1
-409 21 -542 160 -1030 127 -444 203 -636 321 -811 32 -47 81 -121 108 -164
74 -114 107 -155 191 -242 69 -70 80 -78 114 -78 45 0 216 42 257 64 38 19 57
64 50 116 -3 27 -1 40 6 40 7 1 57 5 112 10 178 16 464 -19 592 -72 l71 -30
-14 -34 c-18 -43 -18 -115 0 -158 20 -49 91 -111 167 -148 67 -32 69 -33 74
-78 40 -335 105 -562 232 -814 120 -235 233 -375 386 -474 113 -74 175 -95
269 -90 66 3 82 7 119 33 60 42 102 110 140 222 19 59 41 105 56 119 85 79
362 84 422 8 11 -14 31 -60 46 -103 45 -137 97 -200 210 -252 96 -46 164 -55
238 -35 147 40 278 172 390 391 126 248 203 613 195 920 l-3 129 41 16 c93 35
162 110 185 203 13 53 1 116 -29 150 -21 23 -15 27 103 77 55 23 143 64 195
90 98 49 241 93 435 135 115 25 294 49 302 41 3 -2 -1 -30 -7 -61 -13 -62 -8
-88 14 -79 8 3 33 -7 56 -21 58 -36 127 -65 156 -65 72 0 143 78 252 276 27
49 67 119 90 155 58 95 265 512 311 627 133 335 213 694 242 1087 14 199 14
871 0 1060 -15 198 -48 514 -66 645 -34 234 -174 559 -353 820 -255 372 -564
637 -998 857 -573 291 -1073 407 -1731 401 -109 -1 -216 -3 -238 -5z m-775
-2148 c73 -360 127 -735 165 -1148 32 -355 41 -392 104 -460 53 -58 95 -72
216 -71 102 0 118 3 233 42 148 51 350 142 549 248 122 65 160 91 218 149 82
81 109 128 174 303 91 240 156 500 201 802 12 80 23 146 25 148 2 2 6 -54 10
-125 9 -153 1 -549 -16 -758 -13 -170 -8 -203 42 -278 60 -90 228 -179 434
-227 98 -24 341 -60 399 -60 89 0 172 49 236 138 92 127 205 397 243 582 l13
65 18 -40 c46 -107 121 -323 162 -468 25 -89 53 -187 62 -217 22 -70 24 -416
4 -530 -78 -442 -275 -808 -608 -1130 -219 -212 -479 -385 -788 -524 -50 -23
-150 -74 -222 -114 -225 -123 -705 -321 -846 -348 -42 -8 -195 -49 -340 -90
-341 -98 -335 -98 -598 -14 -107 35 -244 84 -305 111 -60 26 -162 62 -225 80
l-115 32 -151 151 c-91 92 -166 176 -190 215 -23 38 -40 58 -42 49 -5 -24 45
-164 83 -235 18 -35 31 -63 29 -63 -14 0 -547 274 -619 318 -330 204 -603 467
-777 748 -85 138 -100 172 -109 254 -11 91 -13 462 -3 561 l7 72 166 -7 c237
-9 284 -15 276 -35 -30 -73 -29 -304 0 -459 19 -100 73 -258 125 -367 147
-308 407 -539 688 -611 131 -34 309 -36 427 -5 267 70 497 264 594 499 16 39
34 97 41 129 26 133 54 243 61 243 5 0 39 -16 77 -36 86 -45 155 -56 171 -26
12 23 2 67 -29 116 -30 50 -201 211 -310 292 -267 200 -507 330 -773 419 -231
77 -530 124 -702 110 -141 -11 -464 -98 -708 -191 -49 -19 -90 -34 -92 -34 -2
0 -3 47 -2 105 2 83 5 104 15 100 8 -3 100 -7 205 -10 223 -6 239 -2 294 79
40 59 51 93 113 371 67 298 187 612 291 759 l49 70 0 -216 c0 -309 33 -536 96
-665 18 -39 41 -64 82 -94 122 -88 415 -209 503 -209 102 1 184 74 223 200 13
41 45 172 71 290 86 398 153 642 259 955 64 191 75 219 81 213 3 -3 18 -71 35
-153z m-1218 -1811 c26 -8 70 -36 97 -60 169 -152 139 -414 -59 -523 -60 -33
-71 -36 -150 -36 -101 0 -159 24 -228 93 -67 66 -87 119 -87 227 0 78 4 97 27
140 28 55 96 123 148 150 71 37 159 40 252 9z m542 -878 c50 -21 76 -60 76
-116 0 -116 -138 -160 -215 -68 -50 59 -25 152 49 184 40 17 49 17 90 0z
m1561 -1839 c0 -67 -5 -144 -10 -172 l-9 -50 -7 80 c-9 108 0 290 15 275 7 -7
11 -58 11 -133z m-638 42 c11 -43 18 -197 8 -187 -5 4 -28 125 -39 201 -7 54
16 43 31 -14z m1150 -792 c10 -10 -35 -67 -57 -72 -14 -4 -56 -21 -95 -38 -58
-25 -82 -30 -140 -29 -96 1 -121 12 -134 58 -6 20 -8 40 -6 44 4 7 131 35 200
44 34 5 226 -1 232 -7z m-1309 -51 l-20 -53 -141 -9 -142 -10 -37 30 c-21 16
-38 33 -38 37 0 10 87 38 148 49 26 4 93 8 148 9 l102 1 -20 -54z"/>
<path d="M6580 4860 c-356 -32 -748 -177 -1089 -404 -379 -252 -610 -511 -484
-542 20 -5 52 6 134 48 l109 55 0 -102 c0 -198 73 -383 208 -527 241 -256 566
-349 900 -258 367 101 690 502 784 974 23 117 28 354 9 425 -7 23 -11 45 -9
47 8 7 269 24 392 25 l131 0 -100 40 c-161 65 -409 145 -565 183 -162 39 -275
49 -420 36z m-497 -429 c159 -68 236 -267 164 -424 -57 -124 -169 -192 -307
-185 -270 12 -400 319 -225 526 85 101 242 137 368 83z m442 -741 c56 -53 53
-135 -6 -185 -70 -58 -183 -12 -195 80 -6 46 23 100 66 123 36 19 106 9 135
-18z"/>
</g>
</svg>
